<svg version="1.1" viewBox="0 0 512 512" xmlns="http://www.w3.org/2000/svg">
  <path d="m148.8508 242.83446-80.69022 55.24528 80.69022 55.69812" style="fill:none;stroke-width:15;stroke:#557490" />
  <path d="m310.40356 242.83446 80.69022 55.24528-80.69022 55.69812" style="fill:none;stroke-width:15;stroke:#557490" />
  <path
    d="m124.11067 445.91745 170.42195-315.67798c8.56853 13.34206 26.07031 24.42211 45.03382 23.39991l-191.61435 305.96481c-10.36124 14.97813-31.21418 1.38663-23.84142-13.68674z"
    style="fill:#b9cee1"
  />
  <path
    d="m379.30212 42.82093c-21.19235 0.44151-50.33191 6.18108-67.99219 30.0225-11.47919 15.45279-16.33582 39.73572 1.32452 56.07146 18.06896 15.75322 41.49487 12.70359 55.18844-1.32453 20.97047-20.26531 28.05793-59.184687 68.87521-75.05627-10.59617-4.41511-32.23002-10.59619-57.39598-9.71316zm-51.85067 45.41686c-9.13183 12.46039-18.69147 13.965-19.80014 0.71235-1.0444-15.44432 25.26877-27.48974 25.26877-27.48974 16.72516-10.45771 34.98871-10.81151 45.25754-11.31443-27.65739 8.67438-50.72617 38.09182-50.72617 38.09182z"
    style="fill:#c92a7d"
  />
</svg>
