<?xml version="1.0" encoding="utf-8"?>
<svg
  version="1.1"
  xmlns="http://www.w3.org/2000/svg"
  xmlns:xlink="http://www.w3.org/1999/xlink"
  viewBox="0 0 512 512"
  style="enable-background:new 0 0 512 512;"
>
  <path
    style="fill:#C92A7D;"
    d="M379.30212,42.82093c-21.19235,0.44151-50.33191,6.18108-67.99219,30.0225
	c-11.47919,15.45279-16.33582,39.73572,1.32452,56.07146c7.50562,7.0641,17.21878,11.03769,27.81494,10.59618
	c10.59619,0,20.30936-4.4151,27.3735-11.92071c9.27167-9.71316,15.01129-19.42632,20.75085-29.13947
	c10.59619-17.66035,20.75085-34.4376,48.12436-45.9168C426.10193,48.11898,404.46808,41.9379,379.30212,42.82093z
	 M327.45145,88.23779c-5.25281,7.36842-7.52032,8.58898-13.13721,10.68578c-1.60358,0.16036-5.97153,0.25146-6.66293-9.97343
	c-1.0444-15.44432,25.26877-27.48974,25.26877-27.48974c16.72516-10.45771,34.98871-10.81151,45.25754-11.31443
	C350.52023,58.82035,327.45145,88.23779,327.45145,88.23779z"
  />
  <path
    style="fill:#B9CEE1;"
    d="M124.11067,445.91745l170.42195-315.67798c2.20755,3.09053,4.4151,6.18111,7.50565,8.83015
	c10.15466,9.71315,23.3999,15.01126,37.52817,14.56976L147.95209,459.60419c-3.53207,6.18109-11.47919,8.38864-18.10181,4.85657
	l-1.32454-0.883C122.78616,460.04568,120.57863,452.09854,124.11067,445.91745z"
  />
  <polyline
    style="fill:none;stroke:#557490;stroke-width:15;stroke-miterlimit:10;"
    points="148.8508,353.77786 68.16058,298.07974
	148.8508,242.83446 "
  />
  <polyline
    style="fill:none;stroke:#557490;stroke-width:15;stroke-miterlimit:10;"
    points="310.40356,242.60803
	391.09378,298.30615 310.40356,353.55142 "
  />
</svg>
